{
  "accessors": [
    {
      "bufferView": 2,
      "componentType": 5126,
      "count": 1021,
      "max": [
        1.4552954435348511,
        1.4552956819534302,
        3.2293074131011963
      ],
      "min": [
        -1.4552953243255615,
        -1.4552958011627197,
        -8.1170425415039062
      ],
      "type": "VEC3"
    },
    {
      "bufferView": 2,
      "byteOffset": 12252,
      "componentType": 5126,
      "count": 1021,
      "max": [
        1,
        1,
        0.97249758243560791
      ],
      "min": [
        -1,
        -1,
        -0.99621105194091797
      ],
      "type": "VEC3"
    },
    {
      "bufferView": 1,
      "componentType": 5126,
      "count": 1021,
      "max": [
        1,
        1
      ],
      "min": [
        0,
        0.01000000536441803
      ],
      "type": "VEC2"
    },
    {
      "bufferView": 0,
      "componentType": 5125,
      "count": 5556,
      "max": [
        1020
      ],
      "min": [
        0
      ],
      "type": "SCALAR"
    },
    {
      "bufferView": 2,
      "byteOffset": 24504,
      "componentType": 5126,
      "count": 2103,
      "max": [
        0.9820101261138916,
        0.91053128242492676,
        0.028542162850499153
      ],
      "min": [
        -2.3592371940612793,
        -0.89672994613647461,
        -0.12776732444763184
      ],
      "type": "VEC3"
    },
    {
      "bufferView": 2,
      "byteOffset": 49740,
      "componentType": 5126,
      "count": 2103,
      "max": [
        1,
        1,
        1
      ],
      "min": [
        -1,
        -1,
        -1
      ],
      "type": "VEC3"
    },
    {
      "bufferView": 1,
      "byteOffset": 8168,
      "componentType": 5126,
      "count": 2103,
      "max": [
        1.0000001192092896,
        1.0000002384185791
      ],
      "min": [
        0,
        0
      ],
      "type": "VEC2"
    },
    {
      "bufferView": 0,
      "byteOffset": 22224,
      "componentType": 5125,
      "count": 9888,
      "max": [
        2102
      ],
      "min": [
        0
      ],
      "type": "SCALAR"
    }
  ],
  "asset": {
    "extras": {
      "author": "Axt (https://sketchfab.com/shooter24994)",
      "license": "CC-BY-4.0 (http://creativecommons.org/licenses/by/4.0/)",
      "source": "https://sketchfab.com/3d-models/trident-603aa96860c148ba996f3937cd7463ec",
      "title": "Trident"
    },
    "generator": "Sketchfab-9.19.0",
    "version": "2.0"
  },
  "bufferViews": [
    {
      "buffer": 0,
      "byteLength": 61776,
      "byteOffset": 0,
      "name": "floatBufferViews",
      "target": 34963
    },
    {
      "buffer": 0,
      "byteLength": 24992,
      "byteOffset": 61776,
      "byteStride": 8,
      "name": "floatBufferViews",
      "target": 34962
    },
    {
      "buffer": 0,
      "byteLength": 74976,
      "byteOffset": 86768,
      "byteStride": 12,
      "name": "floatBufferViews",
      "target": 34962
    }
  ],
  "buffers": [
    {
      "byteLength": 161744,
      "uri": "scene.bin"
    }
  ],
  "images": [
    {
      "uri": "textures/handle_baseColor.png"
    }
  ],
  "materials": [
    {
      "doubleSided": true,
      "emissiveFactor": [
        0,
        0,
        0
      ],
      "name": "handle",
      "pbrMetallicRoughness": {
        "baseColorFactor": [
          1,
          1,
          1,
          1
        ],
        "baseColorTexture": {
          "index": 0,
          "texCoord": 0
        },
        "metallicFactor": 1,
        "roughnessFactor": 0.18962692057469799
      }
    }
  ],
  "meshes": [
    {
      "name": "handle_handle_0",
      "primitives": [
        {
          "attributes": {
            "NORMAL": 1,
            "POSITION": 0,
            "TEXCOORD_0": 2
          },
          "indices": 3,
          "material": 0,
          "mode": 4
        }
      ]
    },
    {
      "name": "Plane_handle_0",
      "primitives": [
        {
          "attributes": {
            "NORMAL": 5,
            "POSITION": 4,
            "TEXCOORD_0": 6
          },
          "indices": 7,
          "material": 0,
          "mode": 4
        }
      ]
    }
  ],
  "nodes": [
    {
      "children": [
        1
      ],
      "name": "RootNode (gltf orientation matrix)",
      "rotation": [
        -0.70710678118654746,
        -0,
        -0,
        0.70710678118654757
      ]
    },
    {
      "children": [
        2
      ],
      "name": "RootNode (model correction matrix)"
    },
    {
      "children": [
        3
      ],
      "matrix": [
        1,
        0,
        0,
        0,
        0,
        0,
        1,
        0,
        0,
        -1,
        0,
        0,
        0,
        0,
        0,
        1
      ],
      "name": "ce1540650ec147bdaa63a3ac65f3183b.fbx"
    },
    {
      "children": [
        4,
        6
      ],
      "name": "RootNode"
    },
    {
      "children": [
        5
      ],
      "matrix": [
        6.6610746383666992,
        0,
        0,
        0,
        0,
        -1.0852268055624004e-06,
        -6.6610746383666113,
        0,
        0,
        51.40836715698174,
        -8.3754861036402881e-06,
        0,
        70.654022216796875,
        158.51068115234375,
        -0.21319021284580231,
        1
      ],
      "name": "handle"
    },
    {
      "mesh": 0,
      "name": "handle_handle_0"
    },
    {
      "children": [
        7
      ],
      "matrix": [
        -1.879288617931703e-05,
        -66.610740661618451,
        1.1092916695480031e-14,
        0,
        -1.0852267127082038e-05,
        3.0542497301555018e-12,
        -66.610740661620213,
        0,
        66.610740661617555,
        -1.8792886194107584e-05,
        -1.0852267123384398e-05,
        0,
        74.190589904785156,
        389.49862670898438,
        0.083234652876853943,
        1
      ],
      "name": "Plane"
    },
    {
      "mesh": 1,
      "name": "Plane_handle_0"
    }
  ],
  "samplers": [
    {
      "magFilter": 9729,
      "minFilter": 9987,
      "wrapS": 10497,
      "wrapT": 10497
    }
  ],
  "scene": 0,
  "scenes": [
    {
      "name": "OSG_Scene",
      "nodes": [
        0
      ]
    }
  ],
  "textures": [
    {
      "sampler": 0,
      "source": 0
    }
  ]
}

